<?xml version="1.0" standalone="no"?><!DOCTYPE svg PUBLIC "-//W3C//DTD SVG 1.1//EN" "http://www.w3.org/Graphics/SVG/1.1/DTD/svg11.dtd"><svg t="1743422960644" class="icon" viewBox="0 0 1024 1024" version="1.1" xmlns="http://www.w3.org/2000/svg" p-id="2020" xmlns:xlink="http://www.w3.org/1999/xlink" width="200" height="200"><path d="M312.4 683.7c72.4 0 141.6-14.3 205.1-40.3 67-27.5 97.5-116.2 66.3-189.2-36.3-85.1-88.7-159.5-152.8-218-68.2-62.3-169.1-62.3-237.2 0-64 58.6-116.5 133-152.8 218-31.2 73.1-0.7 161.8 66.3 189.2 63.4 26 132.6 40.3 205.1 40.3z" fill="#FEC007" p-id="2021"></path><path d="M312.4 692.5c-72 0-142.1-13.8-208.4-41-32-13.1-57.5-39.6-71.9-74.7-16.5-40.2-16.2-86.1 0.8-126 36.3-85.2 89.9-161.6 154.9-221.1 34.6-31.6 78.8-49 124.5-49s89.9 17.4 124.5 49c65 59.4 118.6 135.9 154.9 221.1 17 39.9 17.3 85.8 0.8 126-14.4 35.1-39.9 61.6-71.9 74.7-66.2 27.2-136.3 41-208.2 41z m0-494.7c-40 0-80.1 14.9-112.7 44.8-63.2 57.7-115.3 132.1-150.7 215-15.2 35.6-15.5 76.6-0.7 112.5 12.6 30.7 34.7 53.9 62.3 65.2 64.2 26.3 132.1 39.7 201.8 39.7 69.7 0 137.6-13.3 201.8-39.7 27.6-11.3 49.7-34.5 62.3-65.2 14.7-35.9 14.4-76.9-0.7-112.5-35.4-82.9-87.4-157.2-150.6-215-32.8-29.9-72.8-44.8-112.8-44.8z" p-id="2022"></path><path d="M298.8 350.1c70.5 0 134.6-23.3 182.7-61.5-15.9-18.6-32.8-36.1-50.6-52.4-68.2-62.3-169.1-62.3-237.2 0-21.7 19.8-42 41.5-60.8 64.7 45.8 30.8 103.4 49.2 165.9 49.2z" fill="#FFE45F" p-id="2023"></path><path d="M308.6 508.9c-57.5 0-111.8-25.2-153-70.9-5.2-5.7-4.7-14.6 1-19.8s14.6-4.7 19.8 1c35.8 39.8 82.7 61.7 132.2 61.7 48.7 0 95.1-21.3 130.6-60 5.2-5.7 14.1-6.1 19.8-0.8 5.7 5.2 6.1 14.1 0.8 19.8-40.9 44.5-94.6 69-151.2 69z" p-id="2024"></path><path d="M114.687178 382.907903a23.2 35.3 80.54 1 0 69.639881-11.603746 23.2 35.3 80.54 1 0-69.639881 11.603746Z" fill="#F95353" p-id="2025"></path><path d="M583.7 454.1c-36.3-85.1-88.7-159.5-152.8-218-26.3-24-57.4-38.7-89.6-44.2 14 7.2 27.4 16.4 39.7 27.6 64 58.6 116.5 133 152.8 218 31.2 73.1 0.7 161.8-66.3 189.2-63.4 26-132.6 40.3-205.1 40.3-50.4 0-99.3-7-145.8-20 60.8 23.6 126.8 36.6 195.6 36.6 72.4 0 141.6-14.3 205.1-40.3 67.1-27.4 97.6-116.1 66.4-189.2z" fill="#FCA50B" p-id="2026"></path><path d="M383.943505 596.098817a58.3 82.3 69.834 1 0 154.509652-56.744406 58.3 82.3 69.834 1 0-154.509652 56.744406Z" fill="#FFE45F" p-id="2027"></path><path d="M313.5 317.6m-62.4 0a62.4 62.4 0 1 0 124.8 0 62.4 62.4 0 1 0-124.8 0Z" fill="#FFFFFF" p-id="2028"></path><path d="M313.5 393.9c-42.1 0-76.4-34.3-76.4-76.4s34.3-76.4 76.4-76.4 76.4 34.3 76.4 76.4-34.2 76.4-76.4 76.4z m0-124.7c-26.7 0-48.4 21.7-48.4 48.4s21.7 48.4 48.4 48.4 48.4-21.7 48.4-48.4-21.7-48.4-48.4-48.4z" p-id="2029"></path><path d="M351 314.2m-24.9 0a24.9 24.9 0 1 0 49.8 0 24.9 24.9 0 1 0-49.8 0Z" fill="#56200A" p-id="2030"></path><path d="M312.4 697.7c-72.7 0-143.4-13.9-210.4-41.4-33.3-13.6-59.8-41.2-74.7-77.6-17-41.5-16.7-88.9 0.9-130.1 36.6-85.9 90.6-162.9 156.2-222.9 35.6-32.5 81-50.4 128.1-50.4s92.5 17.9 128.1 50.4c65.6 59.9 119.6 137 156.2 222.9 17.6 41.2 17.9 88.6 0.9 130.1-14.9 36.4-41.5 64-74.7 77.6-67.2 27.5-138 41.4-210.6 41.4z m0-494.6c-38.8 0-77.5 14.5-109.2 43.4-62.6 57.3-114.3 131-149.3 213.2-14.7 34.3-14.9 73.8-0.8 108.4 12.1 29.4 33.2 51.5 59.5 62.3 63.6 26.1 130.8 39.3 199.8 39.3s136.2-13.2 199.8-39.3c26.3-10.8 47.4-32.9 59.5-62.3 14.2-34.6 13.9-74.1-0.7-108.5-35.1-82.2-86.7-155.9-149.3-213.2-31.8-28.9-70.6-43.3-109.3-43.3z" p-id="2031"></path><path d="M166 627.1c-1.5 0-3.1-0.3-4.7-0.8-7.1-2.5-14.4-5.3-21.4-8.2-35.8-14.7-62-48.6-70.1-90.9-1.5-7.6 3.5-14.9 11.1-16.4 7.6-1.5 14.9 3.5 16.4 11.1 6.4 33 26.3 59.2 53.3 70.3 6.6 2.7 13.4 5.3 20.1 7.7 7.3 2.6 11.1 10.6 8.6 17.9-2.1 5.7-7.5 9.3-13.3 9.3z" fill="#FFFFFF" p-id="2032"></path><path d="M75.6 484.9m-15.6 0a15.6 15.6 0 1 0 31.2 0 15.6 15.6 0 1 0-31.2 0Z" fill="#FFFFFF" p-id="2033"></path><path d="M639.9 834.6c90.7 0 177.4-17.9 256.9-50.5 83.9-34.4 122.1-145.5 83.1-237.1-45.5-106.6-111.1-199.8-191.4-273.1-85.4-78.1-211.8-78.1-297.2 0-80.2 73.4-145.9 166.6-191.4 273.1-39.1 91.5-0.9 202.7 83.1 237.1 79.5 32.6 166.2 50.5 256.9 50.5z" fill="#FEC007" p-id="2034"></path><path d="M639.9 843.4c-89.9 0-177.4-17.2-260.2-51.2-39.5-16.2-71-49-88.8-92.4-20.4-49.8-20-106.7 1-156.2 45.4-106.4 112.3-201.9 193.5-276.2 42.9-39.2 97.8-60.9 154.5-60.9s111.6 21.6 154.5 60.9c81.2 74.3 148.1 169.8 193.5 276.2 21.1 49.4 21.5 106.4 1 156.2-17.8 43.4-49.4 76.2-88.8 92.4-82.7 34-170.3 51.2-260.2 51.2z m0-619.3c-52.3 0-103 20-142.7 56.3-79.4 72.6-144.8 166-189.2 270.1-19.3 45.2-19.6 97.2-1 142.7 16 39 44.2 68.5 79.3 82.9 80.7 33.1 166 49.9 253.6 49.9s172.9-16.8 253.6-49.9c35.1-14.4 63.3-43.8 79.3-82.9 18.7-45.5 18.3-97.5-1-142.7C927.4 446.3 862 352.9 782.6 280.4c-39.7-36.3-90.3-56.3-142.7-56.3z" p-id="2035"></path><path d="M364.3 591.9c-0.7 0-1.4-0.1-2.2-0.2-7.6-1.2-12.9-8.3-11.7-16 2.1-13.5 5.8-26.6 11.1-39 6.6-15.4 13.7-30.6 21.4-45.3 3.6-6.9 12-9.5 18.9-6 6.9 3.6 9.5 12 6 18.9-7.3 14.1-14.2 28.7-20.5 43.4-4.4 10.3-7.5 21.1-9.2 32.3-1.1 6.9-7 11.9-13.8 11.9z" fill="#FFFFFF" p-id="2036"></path><path d="M979.9 547c-45.5-106.6-111.1-199.8-191.4-273.1-51.3-46.9-117.5-65.6-180.6-56.1 41.9 6.3 82.5 25 116.6 56.1 80.2 73.4 145.9 166.6 191.4 273.1 39.1 91.5 0.9 202.7-83.1 237.1-70.1 28.7-145.8 46-224.9 49.7 10.6 0.5 21.3 0.8 32 0.8 90.7 0 177.4-17.9 256.9-50.5 84-34.4 122.2-145.5 83.1-237.1z" fill="#FCA50B" p-id="2037"></path><path d="M622.9 416.7c88.3 0 168.7-29.2 228.9-77.1-19.9-23.3-41-45.3-63.3-65.7-85.4-78.1-211.8-78.1-297.2 0-27.1 24.8-52.6 52-76.2 81.1 57.4 38.6 129.5 61.7 207.8 61.7z" fill="#FFE45F" p-id="2038"></path><path d="M449.5 400.1c-1.4 0-2.8-0.2-4.1-0.6-7.4-2.3-11.5-10.1-9.2-17.5 13-41.9 51.1-70 95-70 31.5 0 61.5 15.2 80.2 40.7 4.6 6.2 3.2 15-3 19.6-6.2 4.6-15 3.2-19.6-3-13.4-18.3-35-29.2-57.6-29.2-31.5 0-59 20.2-68.3 50.3-1.8 5.8-7.4 9.7-13.4 9.7zM826.6 391.8c-6 0-11.6-3.9-13.4-10-5.4-18.1-18.3-31.7-35.5-37.3-23.6-7.8-49.5 1.4-64.5 23-4.4 6.4-13.1 7.9-19.5 3.5s-7.9-13.1-3.5-19.5c22.1-31.9 60.8-45.4 96.3-33.7 25.6 8.5 45.6 29.4 53.5 55.9 2.2 7.4-2 15.2-9.4 17.4-1.3 0.5-2.7 0.7-4 0.7z" p-id="2039"></path><path d="M683.5 596.6s85.7-36.3 57.7-116.4c-21.4-61.3 16.2-127.7 82.6-73.9 43.3 35.1 27.1 106.1 0 126s-140.3 64.3-140.3 64.3z" fill="#F95353" p-id="2040"></path><path d="M683.5 607.1c-4.1 0-8.1-2.5-9.7-6.5-2.2-5.3 0.3-11.4 5.6-13.6 3.1-1.3 76.2-33.6 51.9-103.2-13.8-39.6-5.5-81.3 19.8-99.1 12.5-8.8 39.5-18.7 79.3 13.5 20.4 16.5 31.3 41.8 30.6 71.1-0.7 29.6-13.1 58.4-31 71.5-27.9 20.5-138.1 63.8-142.7 65.6-1.2 0.5-2.5 0.7-3.8 0.7z m95.2-210c-5.7 0-10.9 1.6-15.5 4.7-17.2 12.1-22.5 45-12 75 12 34.5 5 62.8-9.2 84.4 32-13.8 63.7-28.5 75.6-37.3 10.7-7.9 21.9-29.4 22.4-55.1 0.3-13.1-2.3-37.7-22.8-54.3-14.2-11.6-27.4-17.4-38.5-17.4z" p-id="2041"></path><path d="M635.3 612.1c-80.7 0-157.2-30.9-215.2-87-5.6-5.4-5.7-14.2-0.3-19.8 5.4-5.6 14.2-5.7 19.8-0.3 52.8 51 122.3 79.1 195.8 79.1 72.3 0 141-27.4 193.5-77 5.6-5.3 14.5-5.1 19.8 0.5 5.3 5.6 5.1 14.5-0.5 19.8-57.8 54.6-133.4 84.7-212.9 84.7z" p-id="2042"></path><path d="M794.1 474.6s16.5 39.6-18.3 88" fill="#F95353" p-id="2043"></path><path d="M775.8 576.6c-2.8 0-5.7-0.9-8.2-2.6-6.3-4.5-7.7-13.3-3.2-19.5 29.4-40.9 16.8-74.1 16.7-74.4-3-7.1 0.4-15.3 7.5-18.3s15.3 0.4 18.3 7.5c0.8 1.9 19.1 47.5-19.8 101.6-2.7 3.6-6.9 5.7-11.3 5.7z" p-id="2044"></path><path d="M392.213273 457.781864a29.1 44.3 80.54 1 0 87.395092-14.562208 29.1 44.3 80.54 1 0-87.395092 14.562208Z" fill="#F95353" p-id="2045"></path><path d="M639.9 848.6c-90.6 0-178.8-17.3-262.2-51.6-40.8-16.7-73.4-50.6-91.7-95.3-21-51.1-20.6-109.5 1.1-160.2 45.7-107.1 113.1-203.2 194.8-278 43.9-40.1 100-62.2 158.1-62.2 58 0 114.2 22.1 158 62.2 81.8 74.8 149.1 170.9 194.8 278 21.6 50.7 22 109.1 1.1 160.2-18.3 44.7-50.9 78.6-91.7 95.3-83.5 34.3-171.7 51.6-262.3 51.6z m0-619.3c-51 0-100.4 19.5-139.2 54.9-78.8 72.1-143.7 164.9-187.9 268.3-18.7 43.9-19.1 94.4-0.9 138.6 15.5 37.7 42.6 66.1 76.4 80 80.1 32.8 164.7 49.5 251.6 49.5s171.5-16.6 251.6-49.5c33.8-13.9 61-42.3 76.4-80 18.1-44.2 17.8-94.7-0.9-138.6-44.1-103.4-109.1-196.2-187.9-268.3-38.7-35.4-88.2-54.9-139.2-54.9z" p-id="2046"></path><path d="M729.719586 724.839028a73.1 103 69.834 1 0 193.371739-71.016692 73.1 103 69.834 1 0-193.371739 71.016692Z" fill="#FFE45F" p-id="2047"></path><path d="M356.6 625m-17.2 0a17.2 17.2 0 1 0 34.4 0 17.2 17.2 0 1 0-34.4 0Z" fill="#FFFFFF" p-id="2048"></path><path d="M273.5 279.6c-3.6 0-7.2-1.4-9.9-4.1L241 252.9c-5.5-5.5-5.5-14.3 0-19.8s14.3-5.5 19.8 0l22.6 22.6c5.5 5.5 5.5 14.3 0 19.8-2.7 2.8-6.3 4.1-9.9 4.1z" p-id="2049"></path></svg>
